<svg viewBox="0 0 200 200" xmlns="http://www.w3.org/2000/svg">
  <circle cx="100" cy="100" r="100" fill="#EAF4F4"/>
  <!-- Phone body -->
  <rect x="62" y="32" width="76" height="130" rx="14" fill="#0B3D2E"/>
  <rect x="85" y="38" width="30" height="6" rx="3" fill="#072b1f"/>
  <!-- Screen -->
  <rect x="70" y="50" width="60" height="100" rx="6" fill="#F5ECD8"/>
  <!-- Invite title -->
  <text x="100" y="76" font-family="Georgia,serif" font-size="9.5" text-anchor="middle" fill="#0B3D2E">Priya &amp; Arjun</text>
  <line x1="78" y1="83" x2="122" y2="83" stroke="#D4A017" stroke-width="1.2"/>
  <rect x="82" y="89" width="36" height="4" rx="2" fill="#8B5E3C" opacity="0.5"/>
  <rect x="87" y="97" width="26" height="3" rx="1.5" fill="#8B5E3C" opacity="0.3"/>
  <!-- RSVP button -->
  <rect x="79" y="108" width="42" height="13" rx="6.5" fill="#218085"/>
  <text x="100" y="118" font-family="Arial,sans-serif" font-size="6" text-anchor="middle" fill="white">RSVP Now</text>
  <!-- Pen -->
  <g transform="translate(128,24) rotate(35)">
    <rect x="0" y="0" width="8" height="26" rx="2" fill="#D4A017"/>
    <polygon points="0,26 8,26 4,34" fill="#8B5E3C"/>
    <rect x="0" y="0" width="8" height="5" rx="2" fill="#8B5E3C"/>
  </g>
  <!-- Stars -->
  <circle cx="54" cy="52" r="3" fill="#D4A017" opacity="0.7"/>
  <circle cx="150" cy="150" r="4" fill="#218085" opacity="0.45"/>
  <circle cx="50" cy="150" r="2.5" fill="#D4A017" opacity="0.5"/>
</svg>
