<svg xmlns="http://www.w3.org/2000/svg" viewBox="0 0 100 100" fill="none" stroke="currentColor" stroke-width="1.6" stroke-linecap="round" stroke-linejoin="round" style="color:#5C7A4A">
  <g transform="translate(50,50)">
    <g>
      <path d="M0 0 C 14 -8 22 -22 18 -32 C 8 -28 0 -16 0 0 Z" fill="currentColor" fill-opacity="0.18" />
      <path d="M0 0 L 16 -24" />
    </g>
    <g transform="rotate(60)">
      <path d="M0 0 C 14 -8 22 -22 18 -32 C 8 -28 0 -16 0 0 Z" fill="currentColor" fill-opacity="0.18" />
      <path d="M0 0 L 16 -24" />
    </g>
    <g transform="rotate(120)">
      <path d="M0 0 C 14 -8 22 -22 18 -32 C 8 -28 0 -16 0 0 Z" fill="currentColor" fill-opacity="0.18" />
      <path d="M0 0 L 16 -24" />
    </g>
    <g transform="rotate(180)">
      <path d="M0 0 C 14 -8 22 -22 18 -32 C 8 -28 0 -16 0 0 Z" fill="currentColor" fill-opacity="0.18" />
      <path d="M0 0 L 16 -24" />
    </g>
    <g transform="rotate(240)">
      <path d="M0 0 C 14 -8 22 -22 18 -32 C 8 -28 0 -16 0 0 Z" fill="currentColor" fill-opacity="0.18" />
      <path d="M0 0 L 16 -24" />
    </g>
    <g transform="rotate(300)">
      <path d="M0 0 C 14 -8 22 -22 18 -32 C 8 -28 0 -16 0 0 Z" fill="currentColor" fill-opacity="0.18" />
      <path d="M0 0 L 16 -24" />
    </g>
    <circle r="3" fill="currentColor" />
  </g>
</svg>
